<svg xmlns="http://www.w3.org/2000/svg" xml:space="preserve" width="1.70666in" height="1.70666in" version="1.1" style="shape-rendering:geometricPrecision; text-rendering:geometricPrecision; image-rendering:optimizeQuality; fill-rule:evenodd; clip-rule:evenodd" viewBox="0 0 1707 1707" xmlns:xlink="http://www.w3.org/1999/xlink">
 <defs>
  <style type="text/css">
   
    .fil0 {fill:black}
   
  </style>
 </defs>
 <g id="Layer_x0020_1">
  <metadata id="CorelCorpID_0Corel-Layer"></metadata>
  <path class="fil0" d="M1383 824c-82,0 -150,-68 -150,-153 0,-83 68,-150 150,-150 86,0 154,66 154,150 0,85 -69,153 -154,153zm-43 807l-1310 0c-17,0 -30,-13 -30,-30l0 -303c0,-183 177,-332 396,-334l105 0 14 -49c-73,-46 -120,-126 -125,-223 -113,-75 -93,-313 -66,-425 23,-91 65,-125 141,-157 0,0 1,0 1,0 115,-44 310,-53 444,15 70,35 116,88 135,154 34,105 24,248 -25,348 0,0 0,1 0,1 -23,47 -42,58 -43,61 -1,2 10,152 -122,229l12 46 109 0c218,3 394,152 394,334l0 303c0,17 -13,30 -30,30zm-826 -607l-67 0 97 220 97 -121 -127 -99zm-133 1c-179,8 -321,127 -321,273l0 273 87 0 0 -157c0,-39 60,-39 60,0l0 157 73 0 0 -157c0,-39 60,-39 60,0l0 157 237 0 29 -266 -15 -23c-17,21 -36,54 -58,49 -10,-2 -19,-8 -24,-18l-128 -288zm413 546l236 0 0 -227c0,-39 60,-39 60,0l0 227 73 0 0 -203c0,-40 60,-40 60,0l0 203 87 0 0 -273c0,-146 -142,-265 -321,-273l-128 288c-9,19 -36,25 -51,7l-31 -38 -15 21 30 268zm129 -547l-70 0 -127 98 99 122 98 -220zm-240 374c0,0 0,0 0,0 -11,0 -19,-5 -25,-14l-21 187 96 0 -21 -192c-7,10 -13,19 -29,19zm-53 -165l54 80 55 -80 -55 -67 -54 67zm53 -153l126 -97 -10 -41c-59,18 -171,18 -229,-2l-12 43 125 97zm-233 -413l0 11c0,125 87,216 207,216l56 0c127,0 212,-90 204,-215 -8,-120 4,-123 -15,-261 -134,37 -292,148 -445,16 -19,74 -10,153 -7,233zm38 -501c-64,27 -88,48 -105,116 -24,96 -30,233 4,311 -3,-75 -3,-147 29,-226 8,-21 35,-26 50,-9 145,167 302,21 456,-6 16,-3 32,8 35,25 13,82 18,134 17,207 35,-85 42,-203 14,-287 0,0 0,-1 0,-1 -14,-50 -49,-90 -104,-118 -115,-58 -291,-52 -396,-12zm959 838c-167,0 -154,16 -154,-81 -31,-10 -59,-26 -82,-45 -84,44 -63,46 -144,-92 -19,-32 25,-49 54,-67 -6,-33 -6,-59 0,-93 -29,-18 -71,-35 -54,-67 81,-144 63,-140 145,-93 23,-20 52,-37 81,-48 0,-92 -11,-77 154,-77 38,0 30,46 30,78 28,10 55,27 80,48 83,-48 65,-52 146,93 18,33 -26,49 -55,65 7,32 7,64 0,95 84,48 75,31 -5,169 -19,32 -55,4 -85,-12 -24,20 -51,36 -81,46 0,35 8,81 -30,81zm-94 -60l64 0c0,-31 -7,-65 22,-72 88,-22 92,-76 128,-57l38 20 31 -53c-28,-15 -61,-27 -51,-57 28,-82 -25,-118 13,-140l38 -21 -31 -55c-26,16 -52,38 -73,17 -69,-69 -115,-43 -115,-84l0 -40 -64 0c0,29 6,62 -22,69 -88,22 -92,82 -129,60l-37 -22 -31 55c75,47 43,29 43,108 0,83 32,65 -43,110l31 53c27,-14 54,-36 74,-13 52,59 114,36 114,79l0 43zm-30 -503l0 0zm60 140c-50,0 -90,40 -90,90 0,51 42,93 90,93 52,0 94,-42 94,-93 0,-50 -41,-90 -94,-90z" id="id_101" style="fill: rgb(16, 99, 255);"></path>
 </g>
</svg>