<?xml version="1.0" encoding="UTF-8"?>
<svg width="512" height="512" version="1.1" viewBox="0 0 135.47 135.47" xmlns="http://www.w3.org/2000/svg">
 <g transform="matrix(.26458 0 0 .26458 270.92 1083.7)">
  <path d="m-955-4064.2c-20.2 0-37 16.7-37 37v278.5c0 20.3 16.8 37 37 37h115v24c-26.3 0-48 21.6-48 48 0 5.6 1 11 2.8 16 1.7 4.8 6.2 8 11.3 8h211.9c5.1 0 9.6-3.2 11.3-8 1.8-5 2.7-10.4 2.7-16 0-26.4-21.6-48-48-48v-24h115c20.3 0 37-16.7 37-37v-278.5c0-20.3-16.7-37-37-37zm0 24h374c7.5 0 13 5.6 13 13v227.5h-400v-227.5c0-7.4 5.6-13 13-13zm-13 264.5h400v27c0 7.4-5.5 13-13 13h-374c-7.4 0-13-5.6-13-13zm152 64h96v36c0 6.6 5.4 12 12 12h12c13.5 0 24 10.5 24 24h-192c0-13.5 10.5-24 24-24h12c6.6 0 12-5.4 12-12z" style="-inkscape-stroke:none;color:#000000;stroke-linecap:round;stroke-linejoin:round;stroke-width:.99999"/>
  <path d="m-912.6-4017.2c-6.6 0-12 5.4-12 12s5.4 12 12 12h49.4l6.6 26.5 17.8 102.7c1 5.7 6 9.9 11.8 9.9h14.8v19.4c0 6.6 5.4 12 12 12s12-5.4 12-12v-19.4h47.6v19.4c0 6.6 5.4 12 12 12s12-5.4 12-12v-19.4h14.8c5.8 0 10.8-4.2 11.8-9.9l17.9-103.2c1.3-7.4-4.4-14.2-11.9-14.1h-151.5l-6.6-26.8c-1.3-5.4-6.2-9.1-11.7-9.1zm82 59.9h132.4l-13.7 79.2h-105z" style="-inkscape-stroke:none;color:#000000;stroke-linejoin:round;stroke-width:.99999"/>
 </g>
</svg>
